<svg width="273" height="25" viewBox="0 0 273 25" fill="none" xmlns="http://www.w3.org/2000/svg">
<path d="M10.112 17.0703L13.792 7.35831H8.464V5.63031H16.464V5.88631L12.304 17.0703H10.112ZM21.9538 17.0703V14.7503H16.2897V13.9983L21.3457 5.63031H24.0177V13.1663H25.5538V14.7503H24.0177V17.0703H21.9538ZM18.5617 13.1663H21.9858V7.24631L18.5617 13.1663ZM31.2677 17.2303C30.0624 17.2303 29.0437 16.9316 28.2117 16.3343C27.3904 15.737 26.9797 14.905 26.9797 13.8383C26.9797 13.1343 27.1717 12.5316 27.5557 12.0303C27.9397 11.529 28.4624 11.161 29.1237 10.9263C27.9931 10.4783 27.4277 9.68365 27.4277 8.54231C27.4277 7.61431 27.8064 6.87298 28.5637 6.31831C29.3211 5.75298 30.2224 5.47031 31.2677 5.47031C32.3344 5.47031 33.2358 5.74765 33.9717 6.30231C34.7184 6.85698 35.0918 7.59298 35.0918 8.51031C35.0918 9.61965 34.5264 10.4196 33.3958 10.9103C34.0784 11.1556 34.6011 11.5236 34.9637 12.0143C35.3371 12.4943 35.5238 13.081 35.5238 13.7743C35.5238 14.8623 35.1184 15.7103 34.3077 16.3183C33.4971 16.9263 32.4838 17.2303 31.2677 17.2303ZM31.2677 15.6303C31.8971 15.6303 32.4091 15.4543 32.8038 15.1023C33.1984 14.7503 33.3958 14.265 33.3958 13.6463C33.3958 13.0383 33.1984 12.5636 32.8038 12.2223C32.4091 11.8703 31.9024 11.6943 31.2838 11.6943C30.6757 11.6943 30.1637 11.8703 29.7477 12.2223C29.3317 12.5636 29.1237 13.0436 29.1237 13.6623C29.1237 14.281 29.3264 14.7663 29.7317 15.1183C30.1477 15.4596 30.6597 15.6303 31.2677 15.6303ZM31.2997 10.3023C31.8331 10.3023 32.2598 10.153 32.5798 9.85431C32.9104 9.55565 33.0757 9.15031 33.0757 8.63831C33.0757 8.15831 32.9051 7.76898 32.5637 7.47031C32.2224 7.16098 31.7904 7.00631 31.2677 7.00631C30.7451 7.00631 30.3131 7.15565 29.9717 7.45431C29.6304 7.75298 29.4597 8.15298 29.4597 8.65431C29.4597 9.15565 29.6357 9.55565 29.9877 9.85431C30.3504 10.153 30.7877 10.3023 31.2997 10.3023ZM41.9828 15.5343C43.7214 15.5343 44.5908 14.2223 44.5908 11.5983V11.0383C44.5908 9.81165 44.3614 8.85698 43.9028 8.17431C43.4441 7.48098 42.7934 7.13431 41.9508 7.13431C41.0868 7.13431 40.4254 7.47031 39.9668 8.14231C39.5081 8.81431 39.2788 9.78498 39.2788 11.0543V11.6303C39.2788 12.9103 39.5134 13.881 39.9828 14.5423C40.4521 15.2036 41.1188 15.5343 41.9828 15.5343ZM41.9348 17.2303C40.4734 17.2303 39.3054 16.729 38.4308 15.7263C37.5668 14.7236 37.1348 13.3636 37.1348 11.6463V11.0703C37.1348 9.35298 37.5721 7.99298 38.4468 6.99031C39.3214 5.97698 40.4841 5.47031 41.9348 5.47031C43.3961 5.47031 44.5588 5.97165 45.4228 6.97431C46.2868 7.96631 46.7188 9.31565 46.7188 11.0223V11.5983C46.7188 13.3263 46.2921 14.697 45.4388 15.7103C44.5854 16.7236 43.4174 17.2303 41.9348 17.2303ZM53.062 17.0703V5.63031H55.91L58.918 13.4383L61.862 5.63031H64.678V17.0703H62.55V8.43031L59.142 17.0703H58.454L54.982 8.43031V17.0703H53.062ZM71.0023 15.7263C71.7169 15.7263 72.2769 15.481 72.6823 14.9903C73.0983 14.489 73.3063 13.8063 73.3063 12.9423V12.8303C73.3063 11.9663 73.0983 11.289 72.6823 10.7983C72.2769 10.297 71.7169 10.0463 71.0023 10.0463C70.2769 10.0463 69.7063 10.2916 69.2903 10.7823C68.8849 11.273 68.6823 11.9503 68.6823 12.8143V12.9423C68.6823 13.8063 68.8849 14.489 69.2903 14.9903C69.7063 15.481 70.2769 15.7263 71.0023 15.7263ZM74.0743 16.0463C73.2636 16.8356 72.2343 17.2303 70.9863 17.2303C69.7383 17.2303 68.7089 16.8356 67.8983 16.0463C67.0983 15.257 66.6983 14.233 66.6983 12.9743V12.8463C66.6983 11.5663 67.1036 10.5263 67.9143 9.72631C68.7249 8.92631 69.7543 8.52631 71.0023 8.52631C72.2396 8.52631 73.2636 8.92098 74.0743 9.71031C74.8849 10.4996 75.2903 11.529 75.2903 12.7983V12.9263C75.2903 14.217 74.8849 15.257 74.0743 16.0463ZM80.9035 17.2303C79.6768 17.2303 78.6635 16.8516 77.8635 16.0943C77.0742 15.3263 76.6795 14.2916 76.6795 12.9903V12.8623C76.6795 11.561 77.0848 10.5156 77.8955 9.72631C78.7062 8.92631 79.7088 8.52631 80.9035 8.52631C81.9275 8.52631 82.7915 8.78231 83.4955 9.29431C84.2102 9.79565 84.6208 10.585 84.7275 11.6623H82.8555C82.7062 10.6063 82.0662 10.0783 80.9355 10.0783C80.2635 10.0783 79.7142 10.3236 79.2875 10.8143C78.8715 11.305 78.6635 11.977 78.6635 12.8303V12.9583C78.6635 13.8543 78.8662 14.5423 79.2715 15.0223C79.6875 15.5023 80.2582 15.7423 80.9835 15.7423C81.5168 15.7423 81.9702 15.5876 82.3435 15.2783C82.7275 14.9583 82.9462 14.5156 82.9995 13.9503H84.7755C84.7008 14.9316 84.3168 15.7263 83.6235 16.3343C82.9302 16.9316 82.0235 17.2303 80.9035 17.2303ZM86.6426 17.0703V4.83031H88.5786V12.3823L91.5706 8.70231H93.6826L90.4346 12.5423L93.9546 17.0703H91.7146L88.5786 12.9583V17.0703H86.6426ZM95.5313 17.0703V8.70231H97.4673V17.0703H95.5313ZM97.2913 7.00631C97.0673 7.21965 96.7953 7.32631 96.4753 7.32631C96.1553 7.32631 95.8833 7.21965 95.6593 7.00631C95.4353 6.79298 95.3233 6.53165 95.3233 6.22231C95.3233 5.90231 95.4353 5.63565 95.6593 5.42231C95.8833 5.20898 96.1553 5.10231 96.4753 5.10231C96.7953 5.10231 97.0673 5.20898 97.2913 5.42231C97.5153 5.63565 97.6273 5.90231 97.6273 6.22231C97.6273 6.53165 97.5153 6.79298 97.2913 7.00631ZM100.027 17.0703V8.70231H101.963V10.0303C102.176 9.59298 102.518 9.23565 102.987 8.95831C103.456 8.67031 104.016 8.52631 104.667 8.52631C105.552 8.52631 106.251 8.79831 106.763 9.34231C107.275 9.87565 107.531 10.697 107.531 11.8063V17.0703H105.595V11.9823C105.595 11.353 105.462 10.889 105.195 10.5903C104.928 10.2916 104.507 10.1423 103.931 10.1423C103.355 10.1423 102.88 10.3183 102.507 10.6703C102.144 11.0116 101.963 11.5023 101.963 12.1423V17.0703H100.027ZM113.529 20.1423C112.281 20.1423 111.327 19.8916 110.665 19.3903C110.004 18.889 109.615 18.2116 109.497 17.3583H111.449C111.62 18.233 112.308 18.6703 113.513 18.6703C115.071 18.6703 115.849 17.9183 115.849 16.4143V15.1823C115.604 15.609 115.231 15.977 114.729 16.2863C114.239 16.585 113.7 16.7343 113.113 16.7343C112.047 16.7343 111.161 16.3663 110.457 15.6303C109.753 14.8943 109.401 13.9343 109.401 12.7503V12.6383C109.401 11.465 109.759 10.489 110.473 9.71031C111.188 8.92098 112.084 8.52631 113.161 8.52631C114.399 8.52631 115.295 9.01165 115.849 9.98231V8.70231H117.785V16.4463C117.775 17.6516 117.391 18.569 116.633 19.1983C115.887 19.8276 114.852 20.1423 113.529 20.1423ZM113.593 15.2463C114.276 15.2463 114.831 15.017 115.257 14.5583C115.695 14.0996 115.913 13.4756 115.913 12.6863V12.5743C115.913 11.785 115.711 11.1663 115.305 10.7183C114.9 10.2703 114.351 10.0463 113.657 10.0463C112.953 10.0463 112.399 10.281 111.993 10.7503C111.588 11.2196 111.385 11.8383 111.385 12.6063V12.7343C111.385 13.4916 111.593 14.0996 112.009 14.5583C112.425 15.017 112.953 15.2463 113.593 15.2463ZM124.958 17.2303C124.318 17.2303 123.758 17.0916 123.278 16.8143C122.809 16.537 122.457 16.1743 122.222 15.7263V17.0703H120.286V4.83031H122.222V10.0463C122.468 9.61965 122.836 9.26231 123.326 8.97431C123.828 8.67565 124.372 8.52631 124.958 8.52631C126.036 8.52631 126.921 8.91031 127.614 9.67831C128.318 10.4356 128.67 11.4703 128.67 12.7823V12.9103C128.67 14.233 128.324 15.2836 127.63 16.0623C126.948 16.841 126.057 17.2303 124.958 17.2303ZM124.478 15.6943C125.193 15.6943 125.737 15.4596 126.11 14.9903C126.494 14.521 126.686 13.8383 126.686 12.9423V12.8143C126.686 11.9183 126.478 11.2356 126.062 10.7663C125.657 10.2863 125.124 10.0463 124.462 10.0463C123.769 10.0463 123.209 10.2863 122.782 10.7663C122.366 11.2356 122.158 11.9183 122.158 12.8143V12.9423C122.158 13.849 122.361 14.537 122.766 15.0063C123.182 15.465 123.753 15.6943 124.478 15.6943ZM130.659 17.0703V8.70231H132.595V17.0703H130.659ZM132.419 7.00631C132.195 7.21965 131.923 7.32631 131.603 7.32631C131.283 7.32631 131.011 7.21965 130.787 7.00631C130.563 6.79298 130.451 6.53165 130.451 6.22231C130.451 5.90231 130.563 5.63565 130.787 5.42231C131.011 5.20898 131.283 5.10231 131.603 5.10231C131.923 5.10231 132.195 5.20898 132.419 5.42231C132.643 5.63565 132.755 5.90231 132.755 6.22231C132.755 6.53165 132.643 6.79298 132.419 7.00631ZM135.155 17.0703V8.70231H137.091V10.2703C137.646 9.15031 138.552 8.58498 139.811 8.57431V10.3823C138.904 10.393 138.222 10.5743 137.763 10.9263C137.315 11.2783 137.091 11.8756 137.091 12.7183V17.0703H135.155ZM144.694 17.2303C143.606 17.2303 142.721 16.8623 142.038 16.1263C141.356 15.3796 141.014 14.345 141.014 13.0223V12.8943C141.014 11.5716 141.366 10.5156 142.07 9.72631C142.774 8.92631 143.676 8.52631 144.774 8.52631C146.012 8.52631 146.902 9.01165 147.446 9.98231V4.83031H149.382V17.0703H147.446V15.6623C147.212 16.0996 146.838 16.473 146.326 16.7823C145.825 17.081 145.281 17.2303 144.694 17.2303ZM145.174 15.6943C145.878 15.6943 146.444 15.4596 146.87 14.9903C147.297 14.521 147.51 13.833 147.51 12.9263V12.7983C147.51 11.8916 147.313 11.209 146.918 10.7503C146.524 10.281 145.969 10.0463 145.254 10.0463C144.54 10.0463 143.985 10.2916 143.59 10.7823C143.196 11.2623 142.998 11.9503 142.998 12.8463V12.9743C142.998 13.8596 143.196 14.537 143.59 15.0063C143.996 15.465 144.524 15.6943 145.174 15.6943ZM156.056 17.0703V5.63031H158.184V10.4943H163.32V5.63031H165.464V17.0703H163.32V12.2063H158.184V17.0703H156.056ZM168.159 17.0703V8.70231H170.095V17.0703H168.159ZM169.919 7.00631C169.695 7.21965 169.423 7.32631 169.103 7.32631C168.783 7.32631 168.511 7.21965 168.287 7.00631C168.063 6.79298 167.951 6.53165 167.951 6.22231C167.951 5.90231 168.063 5.63565 168.287 5.42231C168.511 5.20898 168.783 5.10231 169.103 5.10231C169.423 5.10231 169.695 5.20898 169.919 5.42231C170.143 5.63565 170.255 5.90231 170.255 6.22231C170.255 6.53165 170.143 6.79298 169.919 7.00631ZM172.703 17.0703V4.83031H174.639V17.0703H172.703ZM177.247 17.0703V4.83031H179.183V17.0703H177.247ZM188.555 17.2303C187.68 17.2303 186.982 16.969 186.459 16.4463C185.936 15.9236 185.675 15.129 185.675 14.0623V8.70231H187.611V13.8383C187.611 14.4676 187.744 14.9316 188.011 15.2303C188.278 15.529 188.694 15.6783 189.259 15.6783C189.814 15.6783 190.278 15.5023 190.651 15.1503C191.024 14.7983 191.211 14.3076 191.211 13.6783V8.70231H193.147V17.0703H191.211V15.7583C190.987 16.1956 190.646 16.553 190.187 16.8303C189.739 17.097 189.195 17.2303 188.555 17.2303ZM195.643 17.0703V8.70231H197.579V10.0303C197.792 9.59298 198.133 9.23565 198.603 8.95831C199.072 8.67031 199.632 8.52631 200.283 8.52631C201.168 8.52631 201.867 8.79831 202.379 9.34231C202.891 9.87565 203.147 10.697 203.147 11.8063V17.0703H201.211V11.9823C201.211 11.353 201.077 10.889 200.811 10.5903C200.544 10.2916 200.123 10.1423 199.547 10.1423C198.971 10.1423 198.496 10.3183 198.123 10.6703C197.76 11.0116 197.579 11.5023 197.579 12.1423V17.0703H195.643ZM208.713 17.2303C207.625 17.2303 206.74 16.8623 206.057 16.1263C205.374 15.3796 205.033 14.345 205.033 13.0223V12.8943C205.033 11.5716 205.385 10.5156 206.089 9.72631C206.793 8.92631 207.694 8.52631 208.793 8.52631C210.03 8.52631 210.921 9.01165 211.465 9.98231V4.83031H213.401V17.0703H211.465V15.6623C211.23 16.0996 210.857 16.473 210.345 16.7823C209.844 17.081 209.3 17.2303 208.713 17.2303ZM209.193 15.6943C209.897 15.6943 210.462 15.4596 210.889 14.9903C211.316 14.521 211.529 13.833 211.529 12.9263V12.7983C211.529 11.8916 211.332 11.209 210.937 10.7503C210.542 10.281 209.988 10.0463 209.273 10.0463C208.558 10.0463 208.004 10.2916 207.609 10.7823C207.214 11.2623 207.017 11.9503 207.017 12.8463V12.9743C207.017 13.8596 207.214 14.537 207.609 15.0063C208.014 15.465 208.542 15.6943 209.193 15.6943ZM219.582 17.2303C218.334 17.2303 217.315 16.8463 216.526 16.0783C215.737 15.3103 215.342 14.2756 215.342 12.9743V12.8463C215.342 11.5663 215.731 10.5263 216.51 9.72631C217.299 8.92631 218.297 8.52631 219.502 8.52631C220.633 8.52631 221.571 8.87831 222.318 9.58231C223.075 10.2863 223.454 11.3423 223.454 12.7503V13.3103H217.326C217.358 14.1103 217.571 14.7236 217.966 15.1503C218.361 15.577 218.915 15.7903 219.63 15.7903C220.761 15.7903 221.401 15.3636 221.55 14.5103H223.422C223.283 15.385 222.878 16.057 222.206 16.5263C221.534 16.9956 220.659 17.2303 219.582 17.2303ZM217.358 12.0143H221.534C221.438 10.6276 220.761 9.93431 219.502 9.93431C218.926 9.93431 218.446 10.121 218.062 10.4943C217.689 10.857 217.454 11.3636 217.358 12.0143ZM225.719 17.0703V10.1583H224.583V8.70231H225.719V7.58231C225.719 6.66498 225.959 5.96631 226.439 5.48631C226.919 4.99565 227.607 4.75031 228.503 4.75031C228.898 4.75031 229.25 4.79831 229.559 4.89431V6.39831C229.357 6.31298 229.085 6.27031 228.743 6.27031C228.018 6.27031 227.655 6.68098 227.655 7.50231V8.70231H229.559V10.1583H227.655V17.0703H225.719ZM231.209 17.0703V8.70231H233.145V17.0703H231.209ZM232.969 7.00631C232.745 7.21965 232.473 7.32631 232.153 7.32631C231.833 7.32631 231.561 7.21965 231.337 7.00631C231.113 6.79298 231.001 6.53165 231.001 6.22231C231.001 5.90231 231.113 5.63565 231.337 5.42231C231.561 5.20898 231.833 5.10231 232.153 5.10231C232.473 5.10231 232.745 5.20898 232.969 5.42231C233.193 5.63565 233.305 5.90231 233.305 6.22231C233.305 6.53165 233.193 6.79298 232.969 7.00631ZM235.705 17.0703V8.70231H237.641V10.0303C237.854 9.59298 238.196 9.23565 238.665 8.95831C239.134 8.67031 239.694 8.52631 240.345 8.52631C241.23 8.52631 241.929 8.79831 242.441 9.34231C242.953 9.87565 243.209 10.697 243.209 11.8063V17.0703H241.273V11.9823C241.273 11.353 241.14 10.889 240.873 10.5903C240.606 10.2916 240.185 10.1423 239.609 10.1423C239.033 10.1423 238.558 10.3183 238.185 10.6703C237.822 11.0116 237.641 11.5023 237.641 12.1423V17.0703H235.705ZM249.32 17.2303C248.072 17.2303 247.053 16.8463 246.264 16.0783C245.474 15.3103 245.08 14.2756 245.08 12.9743V12.8463C245.08 11.5663 245.469 10.5263 246.248 9.72631C247.037 8.92631 248.034 8.52631 249.24 8.52631C250.37 8.52631 251.309 8.87831 252.056 9.58231C252.813 10.2863 253.192 11.3423 253.192 12.7503V13.3103H247.064C247.096 14.1103 247.309 14.7236 247.704 15.1503C248.098 15.577 248.653 15.7903 249.368 15.7903C250.498 15.7903 251.138 15.3636 251.288 14.5103H253.16C253.021 15.385 252.616 16.057 251.944 16.5263C251.272 16.9956 250.397 17.2303 249.32 17.2303ZM247.096 12.0143H251.272C251.176 10.6276 250.498 9.93431 249.24 9.93431C248.664 9.93431 248.184 10.121 247.8 10.4943C247.426 10.857 247.192 11.3636 247.096 12.0143ZM258.257 17.2303C257.169 17.2303 256.283 16.8623 255.601 16.1263C254.918 15.3796 254.577 14.345 254.577 13.0223V12.8943C254.577 11.5716 254.929 10.5156 255.633 9.72631C256.337 8.92631 257.238 8.52631 258.337 8.52631C259.574 8.52631 260.465 9.01165 261.009 9.98231V4.83031H262.945V17.0703H261.009V15.6623C260.774 16.0996 260.401 16.473 259.889 16.7823C259.387 17.081 258.843 17.2303 258.257 17.2303ZM258.737 15.6943C259.441 15.6943 260.006 15.4596 260.433 14.9903C260.859 14.521 261.073 13.833 261.073 12.9263V12.7983C261.073 11.8916 260.875 11.209 260.481 10.7503C260.086 10.281 259.531 10.0463 258.817 10.0463C258.102 10.0463 257.547 10.2916 257.153 10.7823C256.758 11.2623 256.561 11.9503 256.561 12.8463V12.9743C256.561 13.8596 256.758 14.537 257.153 15.0063C257.558 15.465 258.086 15.6943 258.737 15.6943Z" fill="white"/>
</svg>
