<svg width="141" height="45" viewBox="0 0 141 45" fill="none" xmlns="http://www.w3.org/2000/svg">
<path d="M13.408 29.4383C11.6373 27.337 10.752 24.8783 10.752 22.0623C10.752 19.2463 11.6373 16.7876 13.408 14.6863H15.104C13.4827 16.8516 12.672 19.3103 12.672 22.0623C12.672 24.8143 13.4827 27.273 15.104 29.4383H13.408ZM15.8775 27.0703V26.6863L20.1975 22.1263C21.3602 20.8996 21.9415 19.817 21.9415 18.8783C21.9415 18.3343 21.7922 17.9076 21.4935 17.5983C21.1948 17.289 20.7735 17.1343 20.2295 17.1343C19.0455 17.1343 18.3628 17.8916 18.1815 19.4063H16.2295C16.3042 18.1583 16.6988 17.193 17.4135 16.5103C18.1282 15.817 19.0882 15.4703 20.2935 15.4703C21.4668 15.4703 22.3895 15.7796 23.0615 16.3983C23.7335 17.0063 24.0695 17.8223 24.0695 18.8463C24.0695 20.137 23.3228 21.5023 21.8295 22.9423L19.2855 25.4223H24.1495V27.0703H15.8775ZM29.9515 27.2303C28.6182 27.2303 27.5782 26.8943 26.8315 26.2223C26.0955 25.5503 25.7008 24.6543 25.6475 23.5343H27.5835C27.6475 24.1743 27.8662 24.6863 28.2395 25.0703C28.6128 25.4436 29.1675 25.6303 29.9035 25.6303C30.6288 25.6303 31.1728 25.4703 31.5355 25.1503C31.8982 24.8196 32.0795 24.361 32.0795 23.7743C32.0795 22.5263 31.3915 21.9023 30.0155 21.9023H29.1355V20.3823H29.9515C31.2208 20.3823 31.8555 19.8223 31.8555 18.7023C31.8555 18.2223 31.7008 17.833 31.3915 17.5343C31.0928 17.2356 30.6555 17.0863 30.0795 17.0863C29.4822 17.0863 28.9915 17.257 28.6075 17.5983C28.2342 17.929 28.0155 18.3876 27.9515 18.9743H26.0635C26.1168 17.9503 26.5062 17.113 27.2315 16.4623C27.9568 15.801 28.9168 15.4703 30.1115 15.4703C31.2742 15.4703 32.1915 15.7636 32.8635 16.3503C33.5462 16.937 33.8875 17.6676 33.8875 18.5423C33.8875 19.737 33.2688 20.569 32.0315 21.0383C32.7142 21.1983 33.2528 21.5183 33.6475 21.9983C34.0422 22.4676 34.2395 23.0703 34.2395 23.8063C34.2395 24.8623 33.8502 25.6996 33.0715 26.3183C32.3035 26.9263 31.2635 27.2303 29.9515 27.2303ZM40.0883 27.2143C38.9256 27.2143 38.0029 26.9423 37.3203 26.3983C36.6376 25.8543 36.2269 25.0863 36.0883 24.0943H38.0883C38.3123 25.0756 38.9683 25.5663 40.0563 25.5663C41.7203 25.5663 42.5683 24.2596 42.6003 21.6463C42.0136 22.6063 41.0749 23.0863 39.7843 23.0863C38.6643 23.0863 37.7523 22.7503 37.0483 22.0783C36.3443 21.3956 35.9923 20.4943 35.9923 19.3743C35.9923 18.201 36.3763 17.257 37.1443 16.5423C37.9123 15.817 38.9416 15.4543 40.2323 15.4543C41.7043 15.4543 42.8136 15.9183 43.5603 16.8463C44.3176 17.7743 44.6963 19.081 44.6963 20.7663V21.3583C44.6963 23.2356 44.2963 24.681 43.4963 25.6943C42.6963 26.7076 41.5603 27.2143 40.0883 27.2143ZM38.6643 20.9743C39.0589 21.3903 39.5816 21.5983 40.2323 21.5983C40.8829 21.5983 41.4109 21.401 41.8163 21.0063C42.2323 20.6116 42.4403 20.0996 42.4403 19.4703C42.4403 18.713 42.2376 18.121 41.8323 17.6943C41.4269 17.257 40.8883 17.0383 40.2163 17.0383C39.5763 17.0383 39.0589 17.2463 38.6643 17.6623C38.2803 18.0783 38.0883 18.6276 38.0883 19.3103C38.0883 20.0036 38.2803 20.5583 38.6643 20.9743ZM45.9939 29.4063C47.6045 27.2303 48.4099 24.7716 48.4099 22.0303C48.4099 19.289 47.6045 16.8303 45.9939 14.6543H47.6739C49.4445 16.7556 50.3299 19.2143 50.3299 22.0303C50.3299 24.8463 49.4445 27.305 47.6739 29.4063H45.9939ZM59.9498 27.2303C58.6591 27.2303 57.6724 26.9156 56.9898 26.2863C56.3071 25.657 55.9338 24.825 55.8698 23.7903H57.8538C57.9498 24.377 58.1471 24.825 58.4458 25.1343C58.7551 25.433 59.2511 25.5823 59.9338 25.5823C60.5844 25.5823 61.0911 25.3743 61.4538 24.9583C61.8164 24.5423 61.9978 23.977 61.9978 23.2623C61.9978 22.569 61.8111 22.0196 61.4378 21.6143C61.0644 21.209 60.5631 21.0063 59.9338 21.0063C58.9204 21.0063 58.1258 21.337 57.5498 21.9983H56.4618L56.5578 15.6303H63.5018V17.3103H58.1898L58.1738 20.4143C58.7284 19.7743 59.5498 19.4543 60.6378 19.4543C61.6831 19.4543 62.5311 19.801 63.1818 20.4943C63.8324 21.177 64.1578 22.1103 64.1578 23.2943C64.1578 24.489 63.7684 25.4436 62.9898 26.1583C62.2111 26.873 61.1978 27.2303 59.9498 27.2303ZM69.7279 27.2303C68.4372 27.2303 67.4505 26.9156 66.7679 26.2863C66.0852 25.657 65.7119 24.825 65.6479 23.7903H67.6319C67.7279 24.377 67.9252 24.825 68.2239 25.1343C68.5332 25.433 69.0292 25.5823 69.7119 25.5823C70.3625 25.5823 70.8692 25.3743 71.2319 24.9583C71.5945 24.5423 71.7759 23.977 71.7759 23.2623C71.7759 22.569 71.5892 22.0196 71.2159 21.6143C70.8425 21.209 70.3412 21.0063 69.7119 21.0063C68.6985 21.0063 67.9039 21.337 67.3279 21.9983H66.2399L66.3359 15.6303H73.2799V17.3103H67.9679L67.9519 20.4143C68.5065 19.7743 69.3279 19.4543 70.4159 19.4543C71.4612 19.4543 72.3092 19.801 72.9599 20.4943C73.6105 21.177 73.9359 22.1103 73.9359 23.2943C73.9359 24.489 73.5465 25.4436 72.7679 26.1583C71.9892 26.873 70.9759 27.2303 69.7279 27.2303ZM79.506 27.2303C78.2153 27.2303 77.2287 26.9156 76.546 26.2863C75.8633 25.657 75.49 24.825 75.426 23.7903H77.41C77.506 24.377 77.7033 24.825 78.002 25.1343C78.3113 25.433 78.8073 25.5823 79.49 25.5823C80.1407 25.5823 80.6473 25.3743 81.01 24.9583C81.3727 24.5423 81.554 23.977 81.554 23.2623C81.554 22.569 81.3673 22.0196 80.994 21.6143C80.6207 21.209 80.1193 21.0063 79.49 21.0063C78.4767 21.0063 77.682 21.337 77.106 21.9983H76.018L76.114 15.6303H83.058V17.3103H77.746L77.73 20.4143C78.2847 19.7743 79.106 19.4543 80.194 19.4543C81.2393 19.4543 82.0873 19.801 82.738 20.4943C83.3887 21.177 83.714 22.1103 83.714 23.2943C83.714 24.489 83.3247 25.4436 82.546 26.1583C81.7673 26.873 80.754 27.2303 79.506 27.2303ZM85.6023 22.6703V21.0223H89.8903V22.6703H85.6023ZM96.6484 25.5343C98.387 25.5343 99.2564 24.2223 99.2564 21.5983V21.0383C99.2564 19.8116 99.027 18.857 98.5684 18.1743C98.1097 17.481 97.459 17.1343 96.6164 17.1343C95.7524 17.1343 95.091 17.4703 94.6324 18.1423C94.1737 18.8143 93.9444 19.785 93.9444 21.0543V21.6303C93.9444 22.9103 94.179 23.881 94.6484 24.5423C95.1177 25.2036 95.7844 25.5343 96.6484 25.5343ZM96.6004 27.2303C95.139 27.2303 93.971 26.729 93.0964 25.7263C92.2324 24.7236 91.8004 23.3636 91.8004 21.6463V21.0703C91.8004 19.353 92.2377 17.993 93.1124 16.9903C93.987 15.977 95.1497 15.4703 96.6004 15.4703C98.0617 15.4703 99.2244 15.9716 100.088 16.9743C100.952 17.9663 101.384 19.3156 101.384 21.0223V21.5983C101.384 23.3263 100.958 24.697 100.104 25.7103C99.251 26.7236 98.083 27.2303 96.6004 27.2303ZM105.331 27.0703V17.7423L102.915 19.3903V17.5183L105.571 15.6303H107.475V27.0703H105.331ZM114.97 25.5343C116.709 25.5343 117.578 24.2223 117.578 21.5983V21.0383C117.578 19.8116 117.349 18.857 116.89 18.1743C116.432 17.481 115.781 17.1343 114.938 17.1343C114.074 17.1343 113.413 17.4703 112.954 18.1423C112.496 18.8143 112.266 19.785 112.266 21.0543V21.6303C112.266 22.9103 112.501 23.881 112.97 24.5423C113.44 25.2036 114.106 25.5343 114.97 25.5343ZM114.922 27.2303C113.461 27.2303 112.293 26.729 111.418 25.7263C110.554 24.7236 110.122 23.3636 110.122 21.6463V21.0703C110.122 19.353 110.56 17.993 111.434 16.9903C112.309 15.977 113.472 15.4703 114.922 15.4703C116.384 15.4703 117.546 15.9716 118.41 16.9743C119.274 17.9663 119.706 19.3156 119.706 21.0223V21.5983C119.706 23.3263 119.28 24.697 118.426 25.7103C117.573 26.7236 116.405 27.2303 114.922 27.2303ZM125.593 27.2303C124.387 27.2303 123.369 26.9316 122.537 26.3343C121.715 25.737 121.305 24.905 121.305 23.8383C121.305 23.1343 121.497 22.5316 121.881 22.0303C122.265 21.529 122.787 21.161 123.449 20.9263C122.318 20.4783 121.753 19.6836 121.753 18.5423C121.753 17.6143 122.131 16.873 122.889 16.3183C123.646 15.753 124.547 15.4703 125.593 15.4703C126.659 15.4703 127.561 15.7476 128.297 16.3023C129.043 16.857 129.417 17.593 129.417 18.5103C129.417 19.6196 128.851 20.4196 127.721 20.9103C128.403 21.1556 128.926 21.5236 129.289 22.0143C129.662 22.4943 129.849 23.081 129.849 23.7743C129.849 24.8623 129.443 25.7103 128.633 26.3183C127.822 26.9263 126.809 27.2303 125.593 27.2303ZM125.593 25.6303C126.222 25.6303 126.734 25.4543 127.129 25.1023C127.523 24.7503 127.721 24.265 127.721 23.6463C127.721 23.0383 127.523 22.5636 127.129 22.2223C126.734 21.8703 126.227 21.6943 125.609 21.6943C125.001 21.6943 124.489 21.8703 124.073 22.2223C123.657 22.5636 123.449 23.0436 123.449 23.6623C123.449 24.281 123.651 24.7663 124.057 25.1183C124.473 25.4596 124.985 25.6303 125.593 25.6303ZM125.625 20.3023C126.158 20.3023 126.585 20.153 126.905 19.8543C127.235 19.5556 127.401 19.1503 127.401 18.6383C127.401 18.1583 127.23 17.769 126.889 17.4703C126.547 17.161 126.115 17.0063 125.593 17.0063C125.07 17.0063 124.638 17.1556 124.297 17.4543C123.955 17.753 123.785 18.153 123.785 18.6543C123.785 19.1556 123.961 19.5556 124.313 19.8543C124.675 20.153 125.113 20.3023 125.625 20.3023Z" fill="white"/>
</svg>
