<svg width="46" height="47" viewBox="0 0 46 47" fill="none" xmlns="http://www.w3.org/2000/svg">
<path d="M23 27.3353C27.2281 27.3353 30.6666 23.8968 30.6666 19.6686C30.6666 15.4405 27.2281 12.002 23 12.002C18.7718 12.002 15.3333 15.4405 15.3333 19.6686C15.3333 23.8968 18.7718 27.3353 23 27.3353ZM23 15.8353C25.1141 15.8353 26.8333 17.5545 26.8333 19.6686C26.8333 21.7827 25.1141 23.502 23 23.502C20.8859 23.502 19.1666 21.7827 19.1666 19.6686C19.1666 17.5545 20.8859 15.8353 23 15.8353Z" fill="white"/>
<path d="M21.8884 42.3123C22.2128 42.5439 22.6014 42.6685 23.0001 42.6685C23.3987 42.6685 23.7873 42.5439 24.1117 42.3123C24.6944 41.9002 38.389 32.0121 38.3334 19.6688C38.3334 11.2144 31.4545 4.33545 23.0001 4.33545C14.5457 4.33545 7.66673 11.2144 7.66673 19.6592C7.61115 32.0121 21.3057 41.9002 21.8884 42.3123ZM23.0001 8.16878C29.3423 8.16878 34.5001 13.3265 34.5001 19.6784C34.5403 28.1845 26.0897 35.8225 23.0001 38.3275C19.9123 35.8205 11.4598 28.1807 11.5001 19.6688C11.5001 13.3265 16.6578 8.16878 23.0001 8.16878Z" fill="white"/>
</svg>
